<?xml version="1.0" encoding="utf-8"?>
<!-- Generator: Adobe Illustrator 16.0.3, SVG Export Plug-In . SVG Version: 6.00 Build 0)  -->
<!DOCTYPE svg PUBLIC "-//W3C//DTD SVG 1.1//EN" "http://www.w3.org/Graphics/SVG/1.1/DTD/svg11.dtd">
<svg version="1.1" id="Layer_1" xmlns="http://www.w3.org/2000/svg" xmlns:xlink="http://www.w3.org/1999/xlink" x="0px" y="0px"
	 width="30px" height="30px" viewBox="945 585 30 30" enable-background="new 945 585 30 30" xml:space="preserve">
<g>
	<path fill="#777777" d="M966.063,585h-12.125c-4.928,0-8.937,4.009-8.937,8.937v12.125c0,4.929,4.009,8.938,8.937,8.938h12.125
		c4.929,0,8.938-4.009,8.938-8.938v-12.125C975,589.009,970.99,585,966.063,585z M971.982,606.063c0,3.27-2.65,5.92-5.92,5.92
		h-12.125c-3.269,0-5.919-2.65-5.919-5.92v-12.125c0-3.269,2.65-5.919,5.919-5.919h12.125c3.27,0,5.92,2.65,5.92,5.919V606.063
		L971.982,606.063z"/>
	<path fill="#777777" d="M960,592.241c-4.278,0-7.759,3.481-7.759,7.759s3.48,7.759,7.759,7.759s7.759-3.48,7.759-7.759
		S964.278,592.241,960,592.241z M960,604.741c-2.618,0-4.741-2.123-4.741-4.741s2.123-4.741,4.741-4.741s4.741,2.123,4.741,4.741
		S962.618,604.741,960,604.741z"/>
	<circle fill="#777777" cx="967.774" cy="592.299" r="1.859"/>
</g>
</svg>
