<?xml version="1.0" encoding="utf-8"?>
<!-- Generator: Adobe Illustrator 16.0.3, SVG Export Plug-In . SVG Version: 6.00 Build 0)  -->
<!DOCTYPE svg PUBLIC "-//W3C//DTD SVG 1.1//EN" "http://www.w3.org/Graphics/SVG/1.1/DTD/svg11.dtd">
<svg version="1.1" id="Layer_1" xmlns="http://www.w3.org/2000/svg" xmlns:xlink="http://www.w3.org/1999/xlink" x="0px" y="0px"
	 width="46.886px" height="30px" viewBox="0 0 46.886 30" enable-background="new 0 0 46.886 30" xml:space="preserve">
<g>
	<path fill="#777777" d="M16.45,18.093h7.324c-1.285,3.635-4.768,6.242-8.844,6.211c-4.947-0.036-9.037-3.994-9.23-8.937
		c-0.205-5.3,4.047-9.676,9.301-9.676c2.4,0,4.594,0.916,6.246,2.416c0.393,0.355,0.988,0.357,1.373-0.005l2.69-2.532
		c0.422-0.396,0.422-1.064,0.004-1.462c-2.622-2.482-6.137-4.03-10.014-4.105C7.028-0.159,0.06,6.622,0.001,14.893
		C-0.058,23.226,6.681,30,15.001,30c8.002,0,14.538-6.266,14.977-14.156c0.012-0.099,0.02-3.443,0.02-3.443H16.452
		c-0.555,0-1.006,0.45-1.006,1.005v3.685C15.444,17.643,15.896,18.093,16.45,18.093z"/>
	<path fill="#777777" d="M42.406,12.733V9.135c0-0.486-0.393-0.881-0.879-0.881h-3.031c-0.484,0-0.879,0.395-0.879,0.881v3.599h-3.6
		c-0.486,0-0.879,0.396-0.879,0.882v3.027c0,0.487,0.393,0.881,0.879,0.881h3.6v3.6c0,0.485,0.395,0.88,0.879,0.88h3.031
		c0.486,0,0.879-0.395,0.879-0.88v-3.6h3.6c0.486,0,0.881-0.394,0.881-0.881v-3.027c0-0.486-0.395-0.882-0.881-0.882H42.406
		L42.406,12.733z"/>
</g>
</svg>
