<?xml version="1.0" encoding="utf-8"?>
<!-- Generator: Adobe Illustrator 16.0.3, SVG Export Plug-In . SVG Version: 6.00 Build 0)  -->
<!DOCTYPE svg PUBLIC "-//W3C//DTD SVG 1.1//EN" "http://www.w3.org/Graphics/SVG/1.1/DTD/svg11.dtd">
<svg version="1.1" id="Layer_1" xmlns="http://www.w3.org/2000/svg" xmlns:xlink="http://www.w3.org/1999/xlink" x="0px" y="0px"
	 width="36.066px" height="30px" viewBox="941.968 585 36.066 30" enable-background="new 941.968 585 36.066 30"
	 xml:space="preserve">
<path fill="#777777" d="M977.46,588.49c-0.801,0.355-1.633,0.636-2.486,0.839c0.94-0.894,1.647-2.012,2.047-3.259l0,0
	c0.113-0.356-0.273-0.665-0.595-0.474l0,0c-1.188,0.704-2.467,1.233-3.802,1.57c-0.077,0.02-0.158,0.03-0.238,0.03
	c-0.243,0-0.479-0.09-0.665-0.254c-1.421-1.252-3.248-1.942-5.145-1.942c-0.821,0-1.649,0.128-2.464,0.38
	c-2.521,0.782-4.466,2.862-5.077,5.427c-0.229,0.962-0.291,1.926-0.184,2.863c0.012,0.107-0.039,0.183-0.07,0.218
	c-0.055,0.062-0.133,0.097-0.215,0.097c-0.009,0-0.018,0-0.027-0.001c-5.519-0.513-10.495-3.171-14.013-7.486l0,0
	c-0.179-0.22-0.523-0.193-0.667,0.052l0,0c-0.688,1.182-1.053,2.533-1.053,3.909c0,2.108,0.847,4.095,2.318,5.542
	c-0.618-0.146-1.217-0.377-1.773-0.687l0,0c-0.269-0.149-0.6,0.043-0.604,0.351l0,0c-0.038,3.131,1.795,5.918,4.542,7.172
	c-0.055,0.002-0.11,0.003-0.166,0.003c-0.435,0-0.876-0.042-1.31-0.126l0,0c-0.303-0.057-0.558,0.23-0.463,0.524l0,0
	c0.892,2.782,3.288,4.834,6.155,5.3c-2.38,1.598-5.151,2.44-8.036,2.44l-0.899-0.001c-0.277,0-0.511,0.182-0.582,0.449
	c-0.069,0.265,0.059,0.544,0.295,0.681C945.532,614,949.24,615,953.006,615c3.296,0,6.379-0.654,9.164-1.944
	c2.553-1.183,4.809-2.873,6.705-5.024c1.767-2.004,3.148-4.317,4.105-6.876c0.913-2.439,1.396-5.042,1.396-7.526v-0.118
	c0-0.399,0.181-0.774,0.495-1.03c1.195-0.97,2.235-2.112,3.092-3.394l0,0C978.189,588.749,977.833,588.325,977.46,588.49
	L977.46,588.49z"/>
</svg>
